<?xml version="1.0" encoding="UTF-8"?>
<svg xmlns="http://www.w3.org/2000/svg">
  <symbol id="doodle-smiley-happy" viewBox="0 0 64 64">
    <path fill="#ffffff" fill-opacity="0.9" stroke="currentColor" stroke-width="2.2" stroke-linecap="round" stroke-linejoin="round" d="M32 3c9-0.8 18 4 22 13s3 20-4 29-18 13-28 11-17-10-20-21 2-22 12-28 10-4 18-4z"/>
    <circle cx="23.5" cy="27" r="2.8" fill="currentColor"/>
    <circle cx="40.5" cy="27" r="2.8" fill="currentColor"/>
    <path fill="none" stroke="currentColor" stroke-width="2" stroke-linecap="round" d="M21 39c5 7 11 9 22 2"/>
  </symbol>
  <symbol id="doodle-smiley-wink" viewBox="0 0 64 64">
    <path fill="#ffffff" fill-opacity="0.9" stroke="currentColor" stroke-width="2.2" stroke-linecap="round" stroke-linejoin="round" d="M32 5c10-1 19 5 22 14s0 21-8 29-19 11-29 8-15-12-17-23 5-22 16-26 8-2 16-2z"/>
    <path fill="none" stroke="currentColor" stroke-width="2.2" stroke-linecap="round" d="M19 26c2-3 6-4 9-2"/>
    <circle cx="42" cy="27" r="2.8" fill="currentColor"/>
    <path fill="none" stroke="currentColor" stroke-width="2" stroke-linecap="round" d="M22 40c5 6 12 8 20 3"/>
  </symbol>
  <symbol id="doodle-star" viewBox="0 0 32 32">
    <path fill="none" stroke="currentColor" stroke-width="2" stroke-linecap="round" stroke-linejoin="round" d="M16 3l3.5 9.5L29 16l-9.5 3.5L16 29l-3.5-9.5L3 16l9.5-3.5L16 3z"/>
  </symbol>
  <symbol id="doodle-sparkle" viewBox="0 0 24 24">
    <path fill="none" stroke="currentColor" stroke-width="1.8" stroke-linecap="round" d="M12 2v4M12 18v4M2 12h4M18 12h4M4.5 4.5l2.8 2.8M16.7 16.7l2.8 2.8M19.5 4.5l-2.8 2.8M7.3 16.7l-2.8 2.8"/>
    <circle cx="12" cy="12" r="1.6" fill="currentColor"/>
  </symbol>
  <symbol id="doodle-heart" viewBox="0 0 40 40">
    <path fill="none" stroke="currentColor" stroke-width="2" stroke-linecap="round" stroke-linejoin="round" d="M20 34S6 24.5 6 15.5a7.2 7.2 0 0 1 12.5-4.3l1.5 1.4 1.5-1.4A7.2 7.2 0 0 1 34 15.5C34 24.5 20 34 20 34z"/>
  </symbol>
</svg>
